<?xml version="1.0" encoding="UTF-8" standalone="no"?>
<!-- Created with Inkscape (http://www.inkscape.org/) -->

<svg
   xmlns:dc="http://purl.org/dc/elements/1.1/"
   xmlns:cc="http://creativecommons.org/ns#"
   xmlns:rdf="http://www.w3.org/1999/02/22-rdf-syntax-ns#"
   xmlns:svg="http://www.w3.org/2000/svg"
   xmlns="http://www.w3.org/2000/svg"
   xmlns:sodipodi="http://sodipodi.sourceforge.net/DTD/sodipodi-0.dtd"
   xmlns:inkscape="http://www.inkscape.org/namespaces/inkscape"
   width="1037.7123"
   height="591.45416"
   id="svg4833"
   sodipodi:version="0.32"
   inkscape:version="0.91 r13725"
   version="1.0"
   sodipodi:docname="PoolTable.svg"
   inkscape:output_extension="org.inkscape.output.svg.inkscape">
  <defs
     id="defs4835" />
  <sodipodi:namedview
     id="base"
     pagecolor="#ffffff"
     bordercolor="#666666"
     borderopacity="1.0"
     inkscape:pageopacity="0.0"
     inkscape:pageshadow="2"
     inkscape:zoom="1.4142136"
     inkscape:cx="401.6758"
     inkscape:cy="322.60362"
     inkscape:current-layer="layer1"
     inkscape:document-units="px"
     inkscape:window-width="1920"
     inkscape:window-height="1017"
     inkscape:window-x="-8"
     inkscape:window-y="-8"
     showborder="false"
     inkscape:showpageshadow="false"
     showgrid="false"
     inkscape:window-maximized="1" />
  <metadata
     id="metadata4838">
    <rdf:RDF>
      <cc:Work
         rdf:about="">
        <dc:format>image/svg+xml</dc:format>
        <dc:type
           rdf:resource="http://purl.org/dc/dcmitype/StillImage" />
        <dc:title></dc:title>
        <dc:date>3/15/07</dc:date>
        <dc:creator>
          <cc:Agent>
            <dc:title>James R. Scheibe</dc:title>
          </cc:Agent>
        </dc:creator>
        <dc:subject>
          <rdf:Bag>
            <rdf:li>pool</rdf:li>
            <rdf:li>billiards</rdf:li>
            <rdf:li>table</rdf:li>
            <rdf:li>cue</rdf:li>
            <rdf:li>8 ball</rdf:li>
            <rdf:li>stripes</rdf:li>
            <rdf:li>solids</rdf:li>
          </rdf:Bag>
        </dc:subject>
        <dc:description>pool table, wooden cue, numbered balls</dc:description>
        <cc:license
           rdf:resource="http://web.resource.org/cc/PublicDomain" />
      </cc:Work>
      <cc:License
         rdf:about="http://web.resource.org/cc/PublicDomain">
        <cc:permits
           rdf:resource="http://web.resource.org/cc/Reproduction" />
        <cc:permits
           rdf:resource="http://web.resource.org/cc/Distribution" />
        <cc:permits
           rdf:resource="http://web.resource.org/cc/DerivativeWorks" />
      </cc:License>
    </rdf:RDF>
  </metadata>
  <g
     id="layer1"
     inkscape:label="Layer 1"
     inkscape:groupmode="layer"
     transform="translate(0.85618,-86.272926)">
    <path
       sodipodi:type="arc"
       style="opacity:1;fill:#ffffff;fill-opacity:1;stroke:none;stroke-opacity:1;display:inline"
       id="path4924"
       sodipodi:cx="351.96429"
       sodipodi:cy="531.29077"
       sodipodi:rx="2.5"
       sodipodi:ry="2.5"
       d="m 354.46429,531.29077 a 2.5,2.5 0 0 1 -2.5,2.5 2.5,2.5 0 0 1 -2.5,-2.5 2.5,2.5 0 0 1 2.5,-2.5 2.5,2.5 0 0 1 2.5,2.5 z"
       transform="matrix(0.125,0,0,0.125,-33.53768,20.17408)" />
    <g
       id="g2379"
       transform="translate(0,-1.9999914)">
      <rect
         y="104.28958"
         x="13.206238"
         height="559.375"
         width="1009.375"
         id="rect4041"
         style="opacity:1;fill:#545454;fill-opacity:1;stroke:none;stroke-opacity:1;display:inline" />
      <g
         id="g2343">
        <path
           style="fill:#4b1818;fill-opacity:1;display:inline"
           d="M 25.38592,90.22708 C 6.70982,90.64528 -1.78998,101.24188 -0.65308,121.47318 L -0.85618,119.02398 L -0.85618,648.43408 L -0.68048,646.43808 C -2.04558,666.35638 6.24422,676.62038 23.69062,677.72708 L 30.43282,677.72708 L 1014.2961,677.72708 C 1028.0306,676.32148 1035.3909,668.54018 1036.6438,654.65288 L 1036.6438,112.60988 C 1035.1951,98.58708 1027.0885,91.22258 1012.6125,90.22708 L 29.12812,90.22708 L 30.63592,90.35988 C 29.58922,90.28818 28.57092,90.24558 27.57742,90.22708 L 25.38592,90.22708 z M 517.43282,113.02008 C 517.47742,113.01938 517.52102,113.02048 517.56562,113.02008 C 517.61042,113.01958 517.65372,113.02028 517.69842,113.02008 C 529.34452,112.95968 541.03342,119.99768 544.83132,133.97708 L 953.16332,133.97708 L 958.56172,128.57868 C 965.36692,122.68818 972.57972,120.17208 979.30782,120.14118 C 1001.2865,120.04018 1018.0691,146.45758 998.38202,168.39898 L 992.89382,173.88728 L 992.89382,594.09818 L 997.56562,598.77008 C 1022.6982,627.80548 986.40352,664.30408 957.74532,638.59038 L 953.13202,633.97708 L 544.70242,633.97708 C 537.40432,662.26518 498.10002,662.66908 490.65942,633.97708 L 82.53442,633.97708 L 77.44452,639.06698 C 48.40912,664.19948 11.91052,627.90478 37.62422,599.24658 L 42.89382,593.97708 L 42.89382,173.73098 L 37.76092,168.59818 C 18.71522,146.59478 34.94662,120.30438 56.39772,120.05128 C 63.25322,119.97038 70.64062,122.55038 77.58132,128.77788 L 82.78052,133.97708 L 491.00312,133.97708 C 494.77842,120.12708 506.05742,113.18548 517.43282,113.02008 z"
           id="rect1307" />
        <g
           id="g2309">
          <path
             id="rect1318"
             d="M 78.47972,133.97708 L 89.48752,143.37948 C 89.43812,170.90008 78.50782,180.70808 52.11252,180.87948 L 42.89382,170.62558 L 42.89382,598.11378 L 51.93672,587.52788 C 79.45732,587.57728 89.26542,598.50758 89.43672,624.90288 L 79.34302,633.97708 L 491.30782,633.97708 L 491.02662,627.30128 C 508.53012,614.29208 526.37842,614.62048 544.58912,627.30128 L 544.58912,633.97708 L 957.18282,633.97708 L 945.76882,624.22708 C 945.81822,596.70648 956.74842,586.89848 983.14382,586.72708 L 992.89382,597.57478 L 992.89382,169.97708 L 983.83912,180.57868 C 956.31852,180.52918 946.51042,169.59898 946.33912,143.20368 L 956.60472,133.97708 L 544.85472,133.97708 L 544.85472,141.56308 C 526.64402,154.24388 508.79182,154.57218 491.28832,141.56308 L 491.61252,133.97708 L 78.47972,133.97708 z"
             style="fill:#00c57d;fill-opacity:1;display:inline" />
          <path
             id="rect2194"
             d="M 80.39382,133.97708 L 105.39382,158.97708 L 485.39382,158.97708 L 485.39382,158.97708 L 493.64382,133.97708 L 80.39382,133.97708 z M 542.14382,133.97708 L 550.39382,158.97708 L 550.39382,158.97708 L 930.39382,158.97708 C 955.39382,133.97708 955.39382,133.97708 955.39382,133.97708 L 955.39382,133.97708 L 542.14382,133.97708 z M 992.89382,171.47708 L 992.89382,171.47708 L 967.89382,196.47708 L 967.89382,571.47708 C 992.89382,596.47708 992.89382,596.47708 992.89382,596.47708 L 992.89382,596.47708 L 992.89382,171.47708 z M 42.89382,171.47708 L 42.89382,596.47708 L 67.89382,571.47708 L 67.89382,571.47708 L 67.89382,196.47708 C 42.89382,171.47708 42.89382,171.47708 42.89382,171.47708 L 42.89382,171.47708 z M 105.39382,608.97708 L 105.39382,608.97708 C 80.39382,633.97708 80.39382,633.97708 80.39382,633.97708 L 492.89382,633.97708 L 492.89382,633.97708 L 485.39382,608.97708 L 105.39382,608.97708 z M 550.39382,608.97708 L 542.14382,633.97708 L 542.14382,633.97708 L 955.39382,633.97708 L 930.39382,608.97708 L 550.39382,608.97708 z"
             style="fill:#009b50;fill-opacity:1;display:inline" />
          <g
             id="g2278">
            <path
               sodipodi:type="arc"
               style="opacity:1;fill:#ffffff;fill-opacity:1;stroke:none;stroke-opacity:1;display:inline"
               id="path5802"
               sodipodi:cx="371.96429"
               sodipodi:cy="545.75507"
               sodipodi:rx="25"
               sodipodi:ry="25"
               d="m 396.96429,545.75507 a 25,25 0 0 1 -25,25 25,25 0 0 1 -25,-25 25,25 0 0 1 25,-25 25,25 0 0 1 25,25 z"
               transform="matrix(0.125,0,0,0.125,-16.10168,435.25708)" />
            <path
               sodipodi:type="arc"
               style="opacity:1;fill:#ffffff;fill-opacity:1;stroke:none;stroke-opacity:1;display:inline"
               id="path5805"
               sodipodi:cx="371.96429"
               sodipodi:cy="545.75507"
               sodipodi:rx="25"
               sodipodi:ry="25"
               d="m 396.96429,545.75507 a 25,25 0 0 1 -25,25 25,25 0 0 1 -25,-25 25,25 0 0 1 25,-25 25,25 0 0 1 25,25 z"
               transform="matrix(0.125,0,0,0.125,-16.10168,312.63208)" />
            <path
               sodipodi:type="arc"
               style="opacity:1;fill:#ffffff;fill-opacity:1;stroke:none;stroke-opacity:1;display:inline"
               id="path5807"
               sodipodi:cx="371.96429"
               sodipodi:cy="545.75507"
               sodipodi:rx="25"
               sodipodi:ry="25"
               d="m 396.96429,545.75507 a 25,25 0 0 1 -25,25 25,25 0 0 1 -25,-25 25,25 0 0 1 25,-25 25,25 0 0 1 25,25 z"
               transform="matrix(0.125,0,0,0.125,-16.10168,190.00708)" />
            <path
               sodipodi:type="arc"
               style="opacity:1;fill:#ffffff;fill-opacity:1;stroke:none;stroke-opacity:1;display:inline"
               id="path5809"
               sodipodi:cx="371.96429"
               sodipodi:cy="545.75507"
               sodipodi:rx="25"
               sodipodi:ry="25"
               d="m 396.96429,545.75507 a 25,25 0 0 1 -25,25 25,25 0 0 1 -25,-25 25,25 0 0 1 25,-25 25,25 0 0 1 25,25 z"
               transform="matrix(0.125,0,0,0.125,127.64832,47.00708)" />
            <path
               sodipodi:type="arc"
               style="opacity:1;fill:#ffffff;fill-opacity:1;stroke:none;stroke-opacity:1;display:inline"
               id="path5811"
               sodipodi:cx="371.96429"
               sodipodi:cy="545.75507"
               sodipodi:rx="25"
               sodipodi:ry="25"
               d="m 396.96429,545.75507 a 25,25 0 0 1 -25,25 25,25 0 0 1 -25,-25 25,25 0 0 1 25,-25 25,25 0 0 1 25,25 z"
               transform="matrix(0.125,0,0,0.125,250.27332,47.00708)" />
            <path
               sodipodi:type="arc"
               style="opacity:1;fill:#ffffff;fill-opacity:1;stroke:none;stroke-opacity:1;display:inline"
               id="path5813"
               sodipodi:cx="371.96429"
               sodipodi:cy="545.75507"
               sodipodi:rx="25"
               sodipodi:ry="25"
               d="m 396.96429,545.75507 a 25,25 0 0 1 -25,25 25,25 0 0 1 -25,-25 25,25 0 0 1 25,-25 25,25 0 0 1 25,25 z"
               transform="matrix(0.125,0,0,0.125,372.89832,47.00708)" />
            <path
               sodipodi:type="arc"
               style="opacity:1;fill:#ffffff;fill-opacity:1;stroke:none;stroke-opacity:1;display:inline"
               id="path5815"
               sodipodi:cx="371.96429"
               sodipodi:cy="545.75507"
               sodipodi:rx="25"
               sodipodi:ry="25"
               d="m 396.96429,545.75507 a 25,25 0 0 1 -25,25 25,25 0 0 1 -25,-25 25,25 0 0 1 25,-25 25,25 0 0 1 25,25 z"
               transform="matrix(0.125,0,0,0.125,576.14832,47.00708)" />
            <path
               sodipodi:type="arc"
               style="opacity:1;fill:#ffffff;fill-opacity:1;stroke:none;stroke-opacity:1;display:inline"
               id="path5817"
               sodipodi:cx="371.96429"
               sodipodi:cy="545.75507"
               sodipodi:rx="25"
               sodipodi:ry="25"
               d="m 396.96429,545.75507 a 25,25 0 0 1 -25,25 25,25 0 0 1 -25,-25 25,25 0 0 1 25,-25 25,25 0 0 1 25,25 z"
               transform="matrix(0.125,0,0,0.125,698.77332,47.00708)" />
            <path
               sodipodi:type="arc"
               style="opacity:1;fill:#ffffff;fill-opacity:1;stroke:none;stroke-opacity:1;display:inline"
               id="path5819"
               sodipodi:cx="371.96429"
               sodipodi:cy="545.75507"
               sodipodi:rx="25"
               sodipodi:ry="25"
               d="m 396.96429,545.75507 a 25,25 0 0 1 -25,25 25,25 0 0 1 -25,-25 25,25 0 0 1 25,-25 25,25 0 0 1 25,25 z"
               transform="matrix(0.125,0,0,0.125,821.39832,47.00708)" />
            <path
               sodipodi:type="arc"
               style="opacity:1;fill:#ffffff;fill-opacity:1;stroke:none;stroke-opacity:1;display:inline"
               id="path5821"
               sodipodi:cx="371.96429"
               sodipodi:cy="545.75507"
               sodipodi:rx="25"
               sodipodi:ry="25"
               d="m 396.96429,545.75507 a 25,25 0 0 1 -25,25 25,25 0 0 1 -25,-25 25,25 0 0 1 25,-25 25,25 0 0 1 25,25 z"
               transform="matrix(0.125,0,0,0.125,965.14832,190.00708)" />
            <path
               sodipodi:type="arc"
               style="opacity:1;fill:#ffffff;fill-opacity:1;stroke:none;stroke-opacity:1;display:inline"
               id="path5823"
               sodipodi:cx="371.96429"
               sodipodi:cy="545.75507"
               sodipodi:rx="25"
               sodipodi:ry="25"
               d="m 396.96429,545.75507 a 25,25 0 0 1 -25,25 25,25 0 0 1 -25,-25 25,25 0 0 1 25,-25 25,25 0 0 1 25,25 z"
               transform="matrix(0.125,0,0,0.125,965.14832,312.63208)" />
            <path
               sodipodi:type="arc"
               style="opacity:1;fill:#ffffff;fill-opacity:1;stroke:none;stroke-opacity:1;display:inline"
               id="path5827"
               sodipodi:cx="371.96429"
               sodipodi:cy="545.75507"
               sodipodi:rx="25"
               sodipodi:ry="25"
               d="m 396.96429,545.75507 a 25,25 0 0 1 -25,25 25,25 0 0 1 -25,-25 25,25 0 0 1 25,-25 25,25 0 0 1 25,25 z"
               transform="matrix(0.125,0,0,0.125,965.14832,435.25708)" />
            <path
               sodipodi:type="arc"
               style="opacity:1;fill:#ffffff;fill-opacity:1;stroke:none;stroke-opacity:1;display:inline"
               id="path5829"
               sodipodi:cx="371.96429"
               sodipodi:cy="545.75507"
               sodipodi:rx="25"
               sodipodi:ry="25"
               d="m 396.96429,545.75507 a 25,25 0 0 1 -25,25 25,25 0 0 1 -25,-25 25,25 0 0 1 25,-25 25,25 0 0 1 25,25 z"
               transform="matrix(0.125,0,0,0.125,821.39832,578.25708)" />
            <path
               sodipodi:type="arc"
               style="opacity:1;fill:#ffffff;fill-opacity:1;stroke:none;stroke-opacity:1;display:inline"
               id="path5831"
               sodipodi:cx="371.96429"
               sodipodi:cy="545.75507"
               sodipodi:rx="25"
               sodipodi:ry="25"
               d="m 396.96429,545.75507 a 25,25 0 0 1 -25,25 25,25 0 0 1 -25,-25 25,25 0 0 1 25,-25 25,25 0 0 1 25,25 z"
               transform="matrix(0.125,0,0,0.125,698.77332,578.25708)" />
            <path
               sodipodi:type="arc"
               style="opacity:1;fill:#ffffff;fill-opacity:1;stroke:none;stroke-opacity:1;display:inline"
               id="path5833"
               sodipodi:cx="371.96429"
               sodipodi:cy="545.75507"
               sodipodi:rx="25"
               sodipodi:ry="25"
               d="m 396.96429,545.75507 a 25,25 0 0 1 -25,25 25,25 0 0 1 -25,-25 25,25 0 0 1 25,-25 25,25 0 0 1 25,25 z"
               transform="matrix(0.125,0,0,0.125,576.14832,578.25708)" />
            <path
               sodipodi:type="arc"
               style="opacity:1;fill:#ffffff;fill-opacity:1;stroke:none;stroke-opacity:1;display:inline"
               id="path5835"
               sodipodi:cx="371.96429"
               sodipodi:cy="545.75507"
               sodipodi:rx="25"
               sodipodi:ry="25"
               d="m 396.96429,545.75507 a 25,25 0 0 1 -25,25 25,25 0 0 1 -25,-25 25,25 0 0 1 25,-25 25,25 0 0 1 25,25 z"
               transform="matrix(0.125,0,0,0.125,372.89832,578.25708)" />
            <path
               sodipodi:type="arc"
               style="opacity:1;fill:#ffffff;fill-opacity:1;stroke:none;stroke-opacity:1;display:inline"
               id="path5837"
               sodipodi:cx="371.96429"
               sodipodi:cy="545.75507"
               sodipodi:rx="25"
               sodipodi:ry="25"
               d="m 396.96429,545.75507 a 25,25 0 0 1 -25,25 25,25 0 0 1 -25,-25 25,25 0 0 1 25,-25 25,25 0 0 1 25,25 z"
               transform="matrix(0.125,0,0,0.125,250.27332,578.25708)" />
            <path
               sodipodi:type="arc"
               style="opacity:1;fill:#ffffff;fill-opacity:1;stroke:none;stroke-opacity:1;display:inline"
               id="path5839"
               sodipodi:cx="371.96429"
               sodipodi:cy="545.75507"
               sodipodi:rx="25"
               sodipodi:ry="25"
               d="m 396.96429,545.75507 a 25,25 0 0 1 -25,25 25,25 0 0 1 -25,-25 25,25 0 0 1 25,-25 25,25 0 0 1 25,25 z"
               transform="matrix(0.125,0,0,0.125,127.64832,578.25708)" />
            <g
               id="g2266">
              <path
                 sodipodi:nodetypes="ccccccccccc"
                 id="path1333"
                 d="M 51.05212,181.85848 L 37.74852,168.55498 C 12.61592,139.51958 48.91182,103.01978 77.56992,128.73348 L 90.87352,142.03708 L 90.95272,142.27488 L 89.43742,143.03248 L 74.03262,130.40558 C 46.29752,123.79108 32.74502,137.52948 39.18232,165.25578 C 41.28682,168.20138 43.39132,170.54938 45.49582,172.83198 L 52.06182,180.66058 L 51.05212,181.85848 z"
                 style="opacity:1;fill:#000000;fill-opacity:1;fill-rule:evenodd;stroke:#000000;stroke-width:0.125px;stroke-linecap:butt;stroke-linejoin:miter;stroke-opacity:1;display:inline" />
              <path
                 sodipodi:nodetypes="ccccccccccc"
                 id="path2251"
                 d="M 90.69932,625.88258 L 77.39572,639.18618 C 48.36032,664.31868 11.86062,628.02288 37.57432,599.36468 L 50.87782,586.06118 L 51.11562,585.98198 L 51.87322,587.49718 L 39.24632,602.90208 C 32.63182,630.63718 46.37032,644.18968 74.09662,637.75228 C 77.04222,635.64788 79.39022,633.54338 81.67272,631.43888 L 89.50142,624.87288 L 90.69932,625.88258 z"
                 style="opacity:1;fill:#000000;fill-opacity:1;fill-rule:evenodd;stroke:#000000;stroke-width:0.125px;stroke-linecap:butt;stroke-linejoin:miter;stroke-opacity:1;display:inline" />
              <path
                 sodipodi:nodetypes="ccccccccccc"
                 id="path2253"
                 d="M 984.27462,585.52338 L 997.57822,598.82698 C 1022.7108,627.86238 986.41492,664.36208 957.75682,638.64838 L 944.45322,625.34488 L 944.37412,625.10708 L 945.88932,624.34948 L 961.29412,636.97638 C 989.02922,643.59088 1002.5817,629.85238 996.14442,602.12608 C 994.03992,599.18048 991.93542,596.83248 989.83092,594.54998 L 983.26492,586.72128 L 984.27462,585.52338 z"
                 style="opacity:1;fill:#000000;fill-opacity:1;fill-rule:evenodd;stroke:#000000;stroke-width:0.125px;stroke-linecap:butt;stroke-linejoin:miter;stroke-opacity:1;display:inline" />
              <path
                 sodipodi:nodetypes="ccccccccccc"
                 id="path2255"
                 d="M 945.32972,141.89488 L 958.63332,128.59128 C 987.66872,103.45868 1024.1684,139.75458 998.45472,168.41268 L 985.15112,181.71628 L 984.91342,181.79538 L 984.15582,180.28018 L 996.78272,164.87538 C 1003.3972,137.14028 989.65872,123.58778 961.93242,130.02508 C 958.98682,132.12958 956.63882,134.23408 954.35632,136.33858 L 946.52762,142.90458 L 945.32972,141.89488 z"
                 style="opacity:1;fill:#000000;fill-opacity:1;fill-rule:evenodd;stroke:#000000;stroke-width:0.125px;stroke-linecap:butt;stroke-linejoin:miter;stroke-opacity:1;display:inline" />
              <path
                 sodipodi:nodetypes="cccccc"
                 id="path2265"
                 d="M 489.40832,626.66958 C 490.93112,669.05608 542.72102,668.38798 545.83692,626.66958 L 545.85132,626.53408 L 544.58862,627.43528 C 531.47282,657.16258 502.29302,657.33848 490.73462,627.43528 L 489.40832,626.66958 z"
                 style="fill:#000000;fill-opacity:1;fill-rule:evenodd;stroke:#000000;stroke-width:0.125px;stroke-linecap:butt;stroke-linejoin:miter;stroke-opacity:1;display:inline" />
              <path
                 sodipodi:nodetypes="cccccc"
                 id="path3147"
                 d="M 489.76192,142.41628 C 491.28472,100.02978 543.07462,100.69788 546.19052,142.41628 L 546.20482,142.55178 L 544.94212,141.65058 C 531.82632,111.92328 502.64662,111.74738 491.08812,141.65058 L 489.76192,142.41628 z"
                 style="fill:#000000;fill-opacity:1;fill-rule:evenodd;stroke:#000000;stroke-width:0.125px;stroke-linecap:butt;stroke-linejoin:miter;stroke-opacity:1;display:inline" />
              <path
                 sodipodi:nodetypes="ccccccc"
                 id="path5864"
                 d="M 71.09192,123.88568 L 71.09192,90.12138 L 27.25132,90.12138 C 8.72022,89.98028 -1.00268,98.86748 -0.67948,118.05208 L -0.67948,162.06948 L 32.90812,162.06948 C 19.88522,138.35118 44.52542,109.31138 71.09192,123.88568 z"
                 style="fill:#eeeff9;fill-opacity:1;fill-rule:evenodd;stroke:#000000;stroke-width:0.125px;stroke-linecap:butt;stroke-linejoin:miter;stroke-opacity:1;display:inline" />
              <path
                 sodipodi:nodetypes="ccccccc"
                 id="path6739"
                 d="M 1003.0277,162.08718 L 1036.792,162.08718 L 1036.792,118.24658 C 1036.9331,99.71548 1028.0459,89.99258 1008.8613,90.31588 L 964.84392,90.31588 L 964.84392,123.90338 C 988.56222,110.88048 1017.602,135.52068 1003.0277,162.08718 z"
                 style="fill:#eeeff9;fill-opacity:1;fill-rule:evenodd;stroke:#000000;stroke-width:0.125px;stroke-linecap:butt;stroke-linejoin:miter;stroke-opacity:1;display:inline" />
              <path
                 sodipodi:nodetypes="ccccccc"
                 id="path6741"
                 d="M 33.04362,605.57098 L -0.72068,605.57098 L -0.72068,649.41158 C -0.86178,667.94268 8.02542,677.66558 27.21002,677.34228 L 71.22742,677.34228 L 71.22742,643.75478 C 47.50912,656.77768 18.46922,632.13748 33.04362,605.57098 z"
                 style="fill:#eeeff9;fill-opacity:1;fill-rule:evenodd;stroke:#000000;stroke-width:0.125px;stroke-linecap:butt;stroke-linejoin:miter;stroke-opacity:1;display:inline" />
              <path
                 sodipodi:nodetypes="ccccccc"
                 id="path6743"
                 d="M 964.72162,643.80898 L 964.72162,677.57338 L 1008.5622,677.57338 C 1027.0933,677.71448 1036.8162,668.82718 1036.4929,649.64268 L 1036.4929,605.62528 L 1002.9054,605.62528 C 1015.9283,629.34348 991.28812,658.38338 964.72162,643.80898 z"
                 style="fill:#eeeff9;fill-opacity:1;fill-rule:evenodd;stroke:#000000;stroke-width:0.125px;stroke-linecap:butt;stroke-linejoin:miter;stroke-opacity:1;display:inline" />
            </g>
          </g>
        </g>
      </g>
    </g>
    <path
       style="fill:none;fill-opacity:0.75;fill-rule:evenodd;stroke:#000000;stroke-width:0;stroke-linecap:butt;stroke-linejoin:miter;stroke-miterlimit:4;stroke-dasharray:none;stroke-opacity:1"
       d="M 816.54655,444.79114 L 816.54655,418.63343"
       id="path2909" />
    <path
       style="fill:none;fill-opacity:0.75;fill-rule:evenodd;stroke:#000000;stroke-width:0;stroke-linecap:butt;stroke-linejoin:miter;stroke-miterlimit:4;stroke-dasharray:none;stroke-opacity:1"
       d="M 830.8003,444.79114 L 830.8003,418.63343"
       id="path2911" />
  </g>
</svg>
